<svg class="icon" viewBox="0 0 1032 1024" xmlns="http://www.w3.org/2000/svg" width="16.125" height="16"><defs><style/></defs><path d="M441.183 75.122c0-40.925 34.302-74.878 76.063-74.878 40.681 0 74.983 33.953 74.983 74.878v360.623a75.366 75.366 0 01-74.983 74.913c-41.761 0-76.063-33.465-76.063-74.913V75.122zm334.129 180.573a73.275 73.275 0 010-105.694 76.098 76.098 0 01106.043 0 610.635 610.635 0 0163.165 75.924c18.197 26.633 34.302 55.845 47.095 87.707 12.898 30.746 23.566 63.688 30.015 96.63a467.502 467.502 0 010 203.44 498.701 498.701 0 01-30.015 97.19 482.526 482.526 0 01-47.095 87.113 580.028 580.028 0 01-63.165 76.482c-23.565 22.276-48.176 43.575-76.587 62.643-26.737 17.604-56.193 32.977-87.288 46.259-31.583 13.246-64.177 23.39-98.479 30.258-33.744 6.902-68.533 10.632-101.755 10.632-34.79 0-68.534-3.73-102.8-10.632a520.802 520.802 0 01-99.071-30.258 582.957 582.957 0 01-87.22-46.26 548.55 548.55 0 01-76.063-62.642 553.71 553.71 0 01-64.246-76.482 523.521 523.521 0 01-46.05-87.114c-13.943-30.816-24.087-63.758-31.06-97.188C4.324 580.238.07 545.727.07 512.227c0-33.954 4.253-67.942 10.667-101.965 6.972-32.942 17.116-65.884 31.06-96.63 12.898-31.862 28.41-61.074 46.05-87.707A581.318 581.318 0 01152.091 150a76.098 76.098 0 01106.043 0 74.25 74.25 0 010 105.694c-16.07 17.5-31.617 35.104-45.004 53.614a386.384 386.384 0 00-33.186 61.632 325.867 325.867 0 00-21.439 69.091 381.015 381.015 0 00-6.414 72.195c0 25.552 2.127 49.953 6.414 72.263 4.846 23.914 11.783 46.712 21.44 69.092 8.575 20.149 19.765 41.378 33.185 60.516 13.387 19.103 28.934 37.684 45.004 54.172a351.036 351.036 0 0054.625 44.586 348.003 348.003 0 0062.05 32.977 289.823 289.823 0 0069.092 21.194c23.042 5.334 46.607 7.46 73.344 7.46 25.762 0 50.372-2.126 72.787-7.46a335.245 335.245 0 0069.65-21.194 379.133 379.133 0 0061.004-32.977 379.133 379.133 0 0054.625-44.586 390.079 390.079 0 0043.923-54.172c13.944-19.138 25.168-40.367 33.71-60.516 10.248-22.38 16.592-45.178 21.995-69.092a379.62 379.62 0 000-144.458c-5.403-24.436-11.747-47.27-21.996-69.091a350.06 350.06 0 00-33.71-61.632 509.054 509.054 0 00-43.922-53.614z"/></svg>